<svg xmlns="http://www.w3.org/2000/svg" width="800" height="800" viewBox="0 0 256 256"><g fill="none" fill-rule="evenodd" stroke-miterlimit="10" font-family="none" font-size="none" style="mix-blend-mode:normal"><path d="M243.2 12.8v230.4H12.8V12.8zM133.693 236.077l-.106.02-.681.335-.192.038-.135-.038-.681-.336q-.154-.048-.23.048l-.04.096-.162 4.109.048.192.096.125.998.71.144.038.115-.038.999-.71.115-.154.038-.163-.163-4.1q-.038-.153-.163-.172m2.544-1.085-.125.02-1.776.892-.096.096-.029.106.173 4.128.048.115.077.067 1.93.893q.182.038.278-.077l.038-.134-.326-5.895q-.048-.182-.192-.21m-6.864.018a.19.19 0 0 0-.26.058l-.057.134-.326 5.895q0 .172.163.23l.144-.02 1.93-.892.095-.077.039-.105.163-4.128-.029-.116-.096-.096z"/><path d="M105.786 36.915a14.4 14.4 0 0 1 12.508 16.07L114.915 80h38.17l3.83-30.586a14.4 14.4 0 1 1 28.58 3.572L182.114 80H204.8a14.4 14.4 0 1 1 0 28.8h-26.285l-4.8 38.4H200a14.4 14.4 0 1 1 0 28.8h-29.885l-3.82 30.586a14.4 14.4 0 1 1-28.58-3.572l3.37-27.014h-38.16l-3.821 30.586a14.4 14.4 0 1 1-28.58-3.572L73.885 176H56a14.4 14.4 0 1 1 0-28.8h21.485l4.8-38.4H60.8a14.4 14.4 0 1 1 0-28.8h25.085l3.83-30.586a14.4 14.4 0 0 1 16.07-12.518M144.705 147.2l4.8-38.4h-38.18l-4.8 38.4z" fill="#5fb2a2"/></g></svg>